<svg xmlns="http://www.w3.org/2000/svg" version="1.1" xmlns:xlink="http://www.w3.org/1999/xlink" xmlns:svgjs="http://svgjs.dev/svgjs" width="1440" height="560" preserveAspectRatio="none" viewBox="0 0 1440 560"><g mask="url(&quot;#SvgjsMask1000&quot;)" fill="none"><rect width="1440" height="560" x="0" y="0" fill="#1e3266"></rect><path d="M1512 560L0 560 L0 312.42Q66.78 307.2, 72 373.97Q85.92 267.89, 192 281.82Q239.16 256.98, 264 304.14Q344.6 264.74, 384 345.34Q411.64 300.98, 456 328.61Q507.94 260.56, 576 312.5Q653.19 269.69, 696 346.88Q745.63 276.51, 816 326.15Q863.89 254.04, 936 301.94Q990.24 284.18, 1008 338.41Q1015.62 274.03, 1080 281.65Q1151.4 233.05, 1200 304.45Q1269.92 254.37, 1320 324.29Q1398.15 282.44, 1440 360.59Q1464.89 313.48, 1512 338.37z" fill="#182f5d"></path><path d="M1488 560L0 560 L0 369.91Q61.12 359.04, 72 420.16Q92.37 368.53, 144 388.9Q162.74 335.63, 216 354.37Q282.38 300.75, 336 367.12Q401.48 312.6, 456 378.08Q544.31 346.38, 576 434.69Q630.67 369.36, 696 424.03Q741.61 349.63, 816 395.24Q837.42 344.66, 888 366.09Q953.03 311.12, 1008 376.15Q1091.58 339.73, 1128 423.3Q1175.41 350.71, 1248 398.12Q1300.33 330.44, 1368 382.77Q1419.91 314.68, 1488 366.59z" fill="#25467d"></path><path d="M1536 560L0 560 L0 488.52Q33.39 449.91, 72 483.3Q117.57 456.87, 144 502.44Q164.72 451.16, 216 471.89Q265.66 401.55, 336 451.21Q360.19 403.4, 408 427.6Q485.81 385.42, 528 463.23Q583.95 447.19, 600 503.14Q645.95 429.08, 720 475.03Q742.01 425.04, 792 447.06Q821.25 404.31, 864 433.57Q963.68 413.25, 984 512.94Q986.3 443.25, 1056 445.55Q1122.59 392.13, 1176 458.72Q1251.95 414.67, 1296 490.62Q1346.64 421.26, 1416 471.9Q1469.13 405.03, 1536 458.17z" fill="#356cb1"></path><path d="M1512 560L0 560 L0 537.54Q31.33 496.87, 72 528.19Q135.15 519.34, 144 582.49Q145.18 511.67, 216 512.85Q245.07 469.92, 288 498.99Q344.87 483.86, 360 540.72Q431.06 491.78, 480 562.83Q513.97 476.8, 600 510.76Q644.04 482.8, 672 526.83Q713.5 496.33, 744 537.82Q825.53 499.36, 864 580.89Q890.31 487.2, 984 513.52Q1025.04 482.56, 1056 523.6Q1102.05 497.65, 1128 543.71Q1167.69 463.4, 1248 503.09Q1290.92 474.01, 1320 516.93Q1377.03 501.96, 1392 559Q1424.32 471.32, 1512 503.64z" fill="white"></path></g><defs><mask id="SvgjsMask1000"><rect width="1440" height="560" fill="#ffffff"></rect></mask></defs></svg>